<svg xmlns="http://www.w3.org/2000/svg" viewBox="0 0 640 512" fill="#1a73e8">
  <path d="M272 32c-17.7 0-32 14.3-32 32s14.3 32 32 32h16v41.3c-19.9 7.8-33.8 25.3-35.8 46.7H208c-53 0-96 43-96 96v32c0 17.7 14.3 32 32 32h32v96c0 17.7 14.3 32 32 32h64c17.7 0 32-14.3 32-32V344h32c17.7 0 32-14.3 32-32V280c0-53-43-96-96-96h-44.2c2-8.7 6.4-16.4 12.7-22.1c6.4-5.7 14.2-9.5 22.9-10.9l21.3-3.4c32.2-5.1 54.8-34.9 50.7-67.8L399.6 64h16.4c17.7 0 32-14.3 32-32s-14.3-32-32-32H272zM160 240c0-8.8 7.2-16 16-16h48c8.8 0 16 7.2 16 16v16c0 8.8-7.2 16-16 16H176c-8.8 0-16-7.2-16-16V240zm112 16c0-8.8 7.2-16 16-16h48c8.8 0 16 7.2 16 16v16c0 8.8-7.2 16-16 16H288c-8.8 0-16-7.2-16-16V256zm176-16c0-8.8 7.2-16 16-16h48c8.8 0 16 7.2 16 16v16c0 8.8-7.2 16-16 16H464c-8.8 0-16-7.2-16-16V240z"/>
</svg> 